<svg xmlns="http://www.w3.org/2000/svg" height="800" width="1200" version="1.0" viewBox="-27.7491 -12.732425 240.4922 76.39455"><path d="M38.0479 28.9825h-5.7247c.2383-.5957.1202-1.4297-.3574-2.3848l-3.2207-5.3662-5.3672-9.4238s-2.0273-3.8165-5.0088-6.0821c1.9082.7158 26.001 14.7891 26.001 14.7891 3.9365 2.3857 7.3945 8.3486-6.3222 8.4678zm-18.129 15.1484c-3.9365 2.2656-10.9736 2.2656-4.1748-9.6602 1.1924-2.0293 2.8623-5.0097 2.8623-5.0097.4776.5957 1.1934.9531 2.2666.9531h17.1749s4.2949.1191 7.7539-1.3105C44.251 30.295 19.9189 44.1309 19.9189 44.1309zM11.6895 11.211c0-4.5313 3.5781-10.6153 10.496 1.1933 1.1924 2.1475 2.8624 5.0098 2.8624 5.0098-.7159.1182-1.3125.5967-1.9083 1.5508l-3.1015 5.4863-5.4863 9.3027s-2.2666 3.6973-2.7432 7.5157c-.2393-2.1485-.1191-30.0586-.1191-30.0586zM25.4053 0C11.3311 0 0 11.3311 0 25.4053c0 14.0733 11.3311 25.5244 25.4053 25.5244 14.0752 0 25.5254-11.4511 25.5254-25.5244C50.9307 11.3311 39.4805 0 25.4053 0z" fill="#ff5400" fill-rule="evenodd"/><path d="M69.7754 45.8007h6.4404V27.9101h3.459c9.0645 0 21.1122-.7168 21.1122-11.0928 0-10.496-11.3309-11.331-20.3964-11.331H62.2607v1.0733c6.4414.7158 7.5147 1.6709 7.5147 5.3672v33.874zm6.4404-33.874c0-3.578.3574-4.0546 6.4414-4.0546 6.6787 0 10.7334 2.9815 10.7334 8.9452 0 7.753-6.917 8.8262-13.9541 8.8262h-3.2207V11.9268zm31.4892.7159c0-4.8897-1.074-5.247-7.515-6.083V5.4863h15.028l23.497 32.8007h.119V5.4863h3.937v40.3144h-5.726l-25.286-35.0653h-.119v35.0653h-3.935V12.6426zm77.289 32.0839c-3.578.9551-7.037 1.67-14.075 1.67-14.074 0-21.708-9.8985-21.708-22.0655 0-10.8534 4.533-19.4404 19.919-19.4404 11.331 0 15.387 4.7696 15.864 8.8253h-7.276c-.357-1.9082-1.67-6.083-9.065-6.083-7.991 0-12.165 5.9648-12.165 15.1483 0 8.4687 2.146 20.9922 18.606 20.9922 4.413 0 9.065-1.3125 9.9-1.5508v2.504z" fill="#002fcd" fill-rule="evenodd"/><path d="M45.9414 48.0674h.4375c.457 0 .7471-.25.7471-.629 0-.4266-.3106-.6141-.7617-.62-.2071 0-.3536.0205-.4229.04v1.209zm-.4268-1.5078c.2159-.045.5254-.0703.8204-.0703.457 0 .7509.084.958.2715.167.1465.2607.373.2607.6279 0 .4385-.2754.7285-.624.8467v.0146c.2549.0879.4072.3243.4853.668.1084.4619.1875.7813.2569.9092h-.4434c-.0547-.0977-.1269-.379-.2207-.791-.0986-.458-.2764-.629-.664-.6446h-.4024v1.4356h-.4268v-3.2676z" fill="#ff5400"/><path d="M44.1494 48.1768c.0029 1.293 1.0488 2.3369 2.3389 2.3389 1.293-.002 2.3349-1.046 2.3388-2.339-.0039-1.291-1.0458-2.334-2.3388-2.3368-1.2901.0029-2.336 1.0459-2.3389 2.3369zm-.4101 0c0-1.5176 1.2295-2.7481 2.749-2.7481 1.5185 0 2.7519 1.2305 2.7519 2.748 0 1.5206-1.2334 2.753-2.7519 2.753-1.5195 0-2.749-1.2324-2.749-2.753z" fill="#ff5400"/></svg>